<svg width="28" height="28" viewBox="0 0 28 28" fill="none" xmlns="http://www.w3.org/2000/svg">
<path d="M21 14.4378H20.2709V15.167V23.3337C20.2709 23.5753 20.075 23.7712 19.8334 23.7712H16.4792V19.8337C16.4792 19.1088 15.8916 18.5212 15.1667 18.5212H12.8334C12.1085 18.5212 11.5209 19.1088 11.5209 19.8337V23.7712H8.16671C7.92508 23.7712 7.72921 23.5753 7.72921 23.3337V15.167V14.4378H7.00004H3.59142C3.192 14.4378 3.00146 13.9466 3.29643 13.6772L12.9184 4.89196C13.531 4.33261 14.4691 4.33261 15.0817 4.89196L24.7037 13.6772C24.9986 13.9466 24.8081 14.4378 24.4087 14.4378H21Z" stroke="black" stroke-opacity="0.36" stroke-width="1.45833"/>
</svg>
