<svg width="335" height="179" viewBox="0 0 335 179" fill="none" xmlns="http://www.w3.org/2000/svg">
<rect width="335" height="179" fill="#FAFAFA"/>
<path d="M41.236 33.616V34.474H43.212V35.449H44.083V34.474H46.943V35.449H47.814V34.474H49.829V33.772H50.713V31.38H46.046C45.838 30.964 45.63 30.6 45.422 30.262L44.382 30.444C44.616 30.73 44.837 31.042 45.045 31.38H40.261V33.72H41.171V32.264H49.803V33.616H47.814V32.784H46.943V33.616H44.083V32.797H43.212V33.616H41.236ZM49.283 36.008H41.717V40.012H42.653V36.866H48.347V40.012H49.283V36.008ZM44.876 37.503V38.374C44.824 39.18 44.434 39.83 43.706 40.324C42.926 40.818 41.561 41.208 39.585 41.494L40.092 42.287C42.068 41.949 43.485 41.494 44.369 40.909C45.253 40.285 45.721 39.44 45.773 38.374V37.503H44.876ZM49.595 42.144C50.076 42.144 50.427 42.053 50.661 41.871C50.921 41.637 51.09 41.026 51.181 40.012L50.323 39.752C50.271 40.506 50.18 40.948 50.024 41.104C49.894 41.221 49.699 41.286 49.426 41.286H47.242C46.93 41.286 46.787 41.156 46.787 40.896V38.803H45.89V41.091C45.89 41.793 46.241 42.144 46.969 42.144H49.595ZM59.163 30.613C58.708 32.823 58.019 34.565 57.109 35.865L57.824 36.489C58.734 35.215 59.462 33.369 60.021 30.951L59.163 30.613ZM62.179 37.607L61.321 37.893C61.698 38.621 62.062 39.44 62.413 40.324C61.269 40.61 60.034 40.818 58.721 40.948C59.527 39.544 60.346 37.62 61.165 35.176L60.242 34.864C59.111 38.452 58.175 40.519 57.421 41.065L57.603 41.962C59.488 41.78 61.191 41.494 62.725 41.13C62.868 41.52 63.011 41.936 63.154 42.378L64.025 41.988C63.505 40.428 62.881 38.972 62.179 37.607ZM55.549 35.774C55.913 36.32 56.355 37.048 56.862 37.958L57.408 37.139C56.771 36.242 56.147 35.436 55.549 34.734V33.824H57.109V32.927H55.549V30.392H54.626V32.927H52.728V33.824H54.613C54.197 35.462 53.508 36.931 52.52 38.218L52.923 39.232C53.625 38.192 54.184 37.048 54.626 35.787V42.248H55.549V35.774ZM62.192 30.47L61.412 30.899C61.88 33.187 62.686 35.046 63.856 36.502L64.48 35.761C63.388 34.383 62.621 32.628 62.192 30.47Z" fill="black" fill-opacity="0.58"/>
<path d="M228.99 36.718C228.678 37.069 228.314 37.381 227.872 37.667C227.43 37.927 226.988 38.109 226.572 38.226V39.292C227.443 39.032 228.171 38.616 228.756 38.018V46H229.822V36.718H228.99ZM235.248 36.536C234.195 36.536 233.363 37.017 232.752 37.992C232.167 38.915 231.881 40.124 231.881 41.606C231.881 43.023 232.141 44.128 232.687 44.921C233.259 45.753 234.104 46.182 235.235 46.182C236.145 46.182 236.886 45.87 237.484 45.272C238.069 44.674 238.368 43.907 238.368 42.997C238.368 42.087 238.095 41.359 237.562 40.787C237.016 40.215 236.301 39.929 235.417 39.929C234.871 39.929 234.39 40.059 233.974 40.332C233.532 40.592 233.207 40.969 232.973 41.45H232.921C232.908 41.281 232.908 41.164 232.908 41.112C232.908 40.059 233.103 39.188 233.519 38.512C233.935 37.784 234.507 37.433 235.235 37.433C236.314 37.433 236.951 37.953 237.159 39.019H238.212C237.952 37.355 236.964 36.536 235.248 36.536ZM235.209 40.813C235.846 40.813 236.353 41.008 236.743 41.424C237.12 41.814 237.315 42.334 237.315 42.997C237.315 43.66 237.12 44.206 236.73 44.648C236.34 45.064 235.833 45.285 235.209 45.285C234.559 45.285 234.052 45.064 233.662 44.622C233.272 44.206 233.09 43.673 233.09 43.023C233.09 42.373 233.285 41.853 233.688 41.437C234.091 41.021 234.598 40.813 235.209 40.813ZM243.03 39.097C242.016 39.097 241.275 39.526 240.794 40.384V39.279H239.819V48.574H240.859V44.778C241.379 45.714 242.12 46.182 243.082 46.182C244.044 46.182 244.785 45.818 245.331 45.116C245.825 44.466 246.085 43.647 246.085 42.659C246.085 41.645 245.825 40.826 245.318 40.176C244.759 39.448 243.992 39.097 243.03 39.097ZM242.9 39.955C243.615 39.955 244.161 40.215 244.538 40.761C244.85 41.229 245.019 41.866 245.019 42.659C245.019 43.465 244.85 44.102 244.512 44.57C244.135 45.064 243.589 45.324 242.861 45.324C242.237 45.324 241.756 45.077 241.392 44.609C241.002 44.128 240.82 43.504 240.82 42.724V42.594C240.82 41.84 240.989 41.216 241.327 40.748C241.691 40.215 242.224 39.955 242.9 39.955ZM249.23 37.108L248.203 37.537V39.279H246.851V40.15H248.203V44.427C248.203 44.934 248.307 45.311 248.528 45.571C248.762 45.857 249.165 46 249.711 46H250.725V45.129H249.867C249.633 45.129 249.464 45.064 249.373 44.96C249.269 44.856 249.23 44.674 249.23 44.427V40.15H250.894V39.279H249.23V37.108Z" fill="#296BEF"/>
<rect x="39" y="60" width="253" height="119" fill="white"/>
<rect x="39" y="60" width="253" height="59" fill="#F2F2F2"/>
<rect opacity="0.2" x="87" y="60" width="10" height="119" fill="#296BEF"/>
<rect opacity="0.2" x="185" y="60" width="10" height="119" fill="#296BEF"/>
<rect opacity="0.2" x="136" y="60" width="10" height="119" fill="#296BEF"/>
<rect opacity="0.2" x="234" y="60" width="10" height="119" fill="#296BEF"/>
<rect x="234" y="53" width="10" height="3" fill="#296BEF"/>
<path d="M60.8274 78H61.7722V72.7156H60.8311L59.4504 73.6824V74.5906L60.7651 73.6677H60.8274V78ZM65.2146 78.1318C66.478 78.1318 67.2288 77.1064 67.2288 75.3596C67.2288 73.6055 66.467 72.5837 65.2146 72.5837C63.9585 72.5837 63.1968 73.6055 63.1968 75.3523C63.1968 77.1064 63.9475 78.1318 65.2146 78.1318ZM65.2146 77.3481C64.5444 77.3481 64.1526 76.6523 64.1526 75.3523C64.1526 74.0632 64.5518 73.3711 65.2146 73.3711C65.8774 73.3711 66.2729 74.0596 66.2729 75.3523C66.2729 76.6523 65.8848 77.3481 65.2146 77.3481ZM68.906 77.4397C69.2539 77.4397 69.4919 77.1907 69.4919 76.8611C69.4919 76.5278 69.2539 76.2825 68.906 76.2825C68.5618 76.2825 68.3201 76.5278 68.3201 76.8611C68.3201 77.1907 68.5618 77.4397 68.906 77.4397ZM68.906 74.6931C69.2539 74.6931 69.4919 74.4478 69.4919 74.1182C69.4919 73.7849 69.2539 73.5396 68.906 73.5396C68.5618 73.5396 68.3201 73.7849 68.3201 74.1182C68.3201 74.4478 68.5618 74.6931 68.906 74.6931ZM71.9675 78H72.9124V72.7156H71.9712L70.5906 73.6824V74.5906L71.9053 73.6677H71.9675V78ZM76.3181 78.1318C77.49 78.1318 78.2773 77.3774 78.2773 76.2751C78.2773 75.2388 77.5669 74.5027 76.5635 74.5027C76.0544 74.5027 75.6809 74.6821 75.4465 74.9971H75.3843L75.5125 73.5139H77.9624V72.7156H74.78L74.5054 75.7551H75.3623C75.5564 75.4292 75.897 75.2351 76.3328 75.2351C76.9407 75.2351 77.3655 75.6636 77.3655 76.2971C77.3655 76.927 76.9443 77.3445 76.3254 77.3445C75.7798 77.3445 75.366 77.0222 75.3074 76.5352H74.4211C74.4651 77.4653 75.2231 78.1318 76.3181 78.1318Z" fill="#A3A3A3"/>
<g clip-path="url(#clip0)">
<path opacity="0.35" d="M267.646 73.0205H257.854C256.934 73.0205 256.188 73.7667 256.188 74.6872V77.8122C256.188 78.7326 256.934 79.4788 257.854 79.4788H267.646C268.566 79.4788 269.312 78.7326 269.312 77.8122V74.6872C269.312 73.7667 268.566 73.0205 267.646 73.0205Z" stroke="black" stroke-width="0.625"/>
<path opacity="0.4" d="M270.25 75V77.5C270.753 77.2883 271.08 76.7957 271.08 76.25C271.08 75.7043 270.753 75.2117 270.25 75Z" fill="black"/>
<path d="M267.542 73.958H257.958C257.498 73.958 257.125 74.3311 257.125 74.7913V77.708C257.125 78.1682 257.498 78.5413 257.958 78.5413H267.542C268.002 78.5413 268.375 78.1682 268.375 77.708V74.7913C268.375 74.3311 268.002 73.958 267.542 73.958Z" fill="#A3A3A3"/>
</g>
<g clip-path="url(#clip1)">
<path d="M247.956 74.1304C249.341 74.1304 250.673 74.6626 251.677 75.6168C251.753 75.6905 251.874 75.6896 251.948 75.6147L252.67 74.8856C252.708 74.8476 252.729 74.7962 252.729 74.7427C252.729 74.6892 252.707 74.6381 252.669 74.6006C250.034 72.0759 245.878 72.0759 243.244 74.6006C243.206 74.638 243.184 74.6892 243.184 74.7427C243.183 74.7962 243.204 74.8476 243.242 74.8856L243.965 75.6147C244.039 75.6897 244.16 75.6906 244.235 75.6168C245.239 74.6625 246.571 74.1304 247.956 74.1304ZM247.956 76.5027C248.717 76.5026 249.451 76.7854 250.015 77.2962C250.092 77.3687 250.212 77.3671 250.286 77.2927L251.008 76.5635C251.046 76.5252 251.067 76.4734 251.066 76.4194C251.066 76.3655 251.044 76.3141 251.005 76.2766C249.287 74.6789 246.627 74.6789 244.91 76.2766C244.871 76.3141 244.849 76.3655 244.848 76.4195C244.848 76.4734 244.869 76.5253 244.907 76.5635L245.628 77.2927C245.703 77.3671 245.823 77.3687 245.899 77.2962C246.463 76.7858 247.196 76.503 247.956 76.5027ZM249.343 78.2429C249.382 78.205 249.403 78.1529 249.402 78.0988C249.401 78.0447 249.378 77.9935 249.338 77.9572C248.54 77.2829 247.373 77.2829 246.575 77.9572C246.535 77.9935 246.512 78.0447 246.511 78.0987C246.51 78.1528 246.531 78.205 246.569 78.2429L247.818 79.5027C247.855 79.5397 247.904 79.5605 247.956 79.5605C248.009 79.5605 248.058 79.5397 248.095 79.5027L249.343 78.2429Z" fill="#A3A3A3"/>
</g>
<g clip-path="url(#clip2)">
<path d="M230.042 77.0837C230.387 77.0837 230.667 77.3635 230.667 77.7087V78.9587C230.667 79.3038 230.387 79.5837 230.042 79.5837H229.417C229.072 79.5837 228.792 79.3038 228.792 78.9587V77.7087C228.792 77.3635 229.072 77.0837 229.417 77.0837H230.042ZM232.333 75.8337H232.958C233.304 75.8337 233.583 76.1135 233.583 76.4587V78.9587C233.583 79.3038 233.304 79.5837 232.958 79.5837H232.333C231.988 79.5837 231.708 79.3038 231.708 78.9587V76.4587C231.708 76.1135 231.988 75.8337 232.333 75.8337ZM235.25 74.3753H235.875C236.22 74.3753 236.5 74.6551 236.5 75.0003V78.9587C236.5 79.3038 236.22 79.5837 235.875 79.5837H235.25C234.905 79.5837 234.625 79.3038 234.625 78.9587V75.0003C234.625 74.6551 234.905 74.3753 235.25 74.3753ZM238.167 72.917H238.792C239.137 72.917 239.417 73.1968 239.417 73.542V78.9587C239.417 79.3038 239.137 79.5837 238.792 79.5837H238.167C237.822 79.5837 237.542 79.3038 237.542 78.9587V73.542C237.542 73.1968 237.822 72.917 238.167 72.917Z" fill="#A3A3A3"/>
</g>
<defs>
<clipPath id="clip0">
<rect width="15.625" height="7.5" fill="white" transform="translate(255.875 72.5)"/>
</clipPath>
<clipPath id="clip1">
<rect width="10" height="7.5" fill="white" transform="translate(242.75 72.5)"/>
</clipPath>
<clipPath id="clip2">
<rect width="11.25" height="7.5" fill="white" transform="translate(228.375 72.5)"/>
</clipPath>
</defs>
</svg>
