<svg width="335" height="179" viewBox="0 0 335 179" fill="none" xmlns="http://www.w3.org/2000/svg">
<rect width="335" height="179" fill="#FAFAFA"/>
<path d="M40.664 31.744C40.443 31.744 40.261 31.809 40.105 31.965C39.949 32.095 39.884 32.277 39.884 32.511C39.884 32.732 39.949 32.914 40.105 33.07C40.261 33.213 40.443 33.291 40.664 33.291C40.885 33.291 41.067 33.213 41.223 33.07C41.379 32.914 41.457 32.732 41.457 32.511C41.457 32.277 41.379 32.095 41.223 31.965C41.067 31.809 40.885 31.744 40.664 31.744ZM40.144 34.279V41H41.184V34.279H40.144ZM46.3432 34.097C45.3292 34.097 44.5882 34.526 44.1072 35.384V34.279H43.1322V43.574H44.1722V39.778C44.6922 40.714 45.4332 41.182 46.3952 41.182C47.3572 41.182 48.0982 40.818 48.6442 40.116C49.1382 39.466 49.3982 38.647 49.3982 37.659C49.3982 36.645 49.1382 35.826 48.6312 35.176C48.0722 34.448 47.3052 34.097 46.3432 34.097ZM46.2132 34.955C46.9282 34.955 47.4742 35.215 47.8512 35.761C48.1632 36.229 48.3322 36.866 48.3322 37.659C48.3322 38.465 48.1632 39.102 47.8252 39.57C47.4482 40.064 46.9022 40.324 46.1742 40.324C45.5502 40.324 45.0692 40.077 44.7052 39.609C44.3152 39.128 44.1332 38.504 44.1332 37.724V37.594C44.1332 36.84 44.3022 36.216 44.6402 35.748C45.0042 35.215 45.5372 34.955 46.2132 34.955ZM50.7494 31.536V41H51.7894V37.165C51.7894 36.541 51.9584 36.008 52.3094 35.592C52.6474 35.176 53.0764 34.968 53.5964 34.968C54.1554 34.968 54.5844 35.137 54.8964 35.475C55.1824 35.813 55.3384 36.294 55.3384 36.918V41H56.3784V36.762C56.3784 35.904 56.1704 35.241 55.7544 34.786C55.3384 34.318 54.7274 34.097 53.9474 34.097C53.4924 34.097 53.0894 34.201 52.7254 34.409C52.3354 34.63 52.0234 34.955 51.7894 35.384V31.536H50.7494ZM60.976 34.097C59.962 34.097 59.169 34.435 58.571 35.137C57.999 35.8 57.713 36.632 57.713 37.646C57.713 38.647 57.999 39.479 58.571 40.129C59.169 40.831 59.962 41.182 60.976 41.182C61.977 41.182 62.783 40.831 63.394 40.129C63.953 39.479 64.239 38.647 64.239 37.646C64.239 36.632 63.953 35.8 63.381 35.137C62.783 34.435 61.977 34.097 60.976 34.097ZM60.976 34.968C61.678 34.968 62.237 35.241 62.653 35.787C63.004 36.281 63.186 36.892 63.186 37.646C63.186 38.374 63.004 38.998 62.653 39.492C62.237 40.038 61.678 40.311 60.976 40.311C60.261 40.311 59.702 40.038 59.312 39.492C58.948 38.998 58.779 38.387 58.779 37.646C58.779 36.892 58.948 36.281 59.312 35.787C59.702 35.241 60.261 34.968 60.976 34.968ZM68.7362 34.097C68.2942 34.097 67.8912 34.201 67.5272 34.409C67.1632 34.604 66.8642 34.89 66.6302 35.267V34.279H65.5902V41H66.6302V36.944C66.6692 36.333 66.8642 35.852 67.2282 35.488C67.5662 35.15 67.9692 34.981 68.4372 34.981C69.6072 34.981 70.2052 35.631 70.2052 36.944V41H71.2452V36.866C71.2452 35.02 70.4002 34.097 68.7362 34.097ZM75.6209 34.097C74.6459 34.097 73.8789 34.448 73.3069 35.15C72.7349 35.813 72.4619 36.645 72.4619 37.633C72.4619 38.725 72.7479 39.583 73.3459 40.233C73.9179 40.857 74.6979 41.182 75.6599 41.182C76.5309 41.182 77.2459 40.922 77.8049 40.428C78.2599 40.012 78.5589 39.492 78.7149 38.842H77.6749C77.5059 39.31 77.2849 39.661 76.9989 39.895C76.6609 40.168 76.2059 40.311 75.6599 40.311C75.0229 40.311 74.5159 40.103 74.1519 39.687C73.7879 39.271 73.5929 38.686 73.5409 37.932H78.8449C78.8189 36.762 78.5589 35.839 78.0649 35.189C77.5189 34.461 76.6999 34.097 75.6209 34.097ZM75.6469 34.968C76.9209 34.968 77.6359 35.683 77.7659 37.126H73.5669C73.6319 36.463 73.8399 35.943 74.2039 35.553C74.5679 35.163 75.0489 34.968 75.6469 34.968ZM83.9369 34.279L86.3159 37.438L83.6509 41H84.8859L86.9009 38.205L88.9029 41H90.1379L87.4729 37.438L89.8519 34.279H88.6299L86.9009 36.671L85.1589 34.279H83.9369Z" fill="black" fill-opacity="0.58"/>
<path d="M227.03 36.536C226.094 36.536 225.327 36.848 224.755 37.472C224.183 38.083 223.884 38.915 223.884 39.955H224.95C224.963 39.136 225.158 38.512 225.522 38.096C225.86 37.654 226.354 37.446 226.991 37.446C227.589 37.446 228.07 37.602 228.408 37.914C228.746 38.226 228.915 38.655 228.915 39.227C228.915 39.825 228.668 40.384 228.2 40.891C227.953 41.151 227.472 41.528 226.744 42.048C225.756 42.724 225.093 43.283 224.729 43.699C224.105 44.388 223.806 45.155 223.806 46H229.994V45.051H225.119C225.288 44.427 225.964 43.712 227.147 42.919C228.109 42.269 228.746 41.762 229.071 41.424C229.669 40.774 229.981 40.046 229.981 39.24C229.981 38.434 229.695 37.771 229.149 37.277C228.59 36.783 227.888 36.536 227.03 36.536ZM234.695 36.536C233.577 36.536 232.745 37.017 232.186 38.005C231.692 38.837 231.445 39.955 231.445 41.359C231.445 42.763 231.692 43.881 232.186 44.713C232.745 45.688 233.577 46.182 234.695 46.182C235.8 46.182 236.632 45.688 237.204 44.713C237.698 43.881 237.945 42.763 237.945 41.359C237.945 39.955 237.698 38.837 237.204 38.005C236.632 37.017 235.8 36.536 234.695 36.536ZM234.695 37.446C235.527 37.446 236.125 37.888 236.489 38.785C236.749 39.409 236.892 40.267 236.892 41.359C236.892 42.438 236.749 43.296 236.489 43.933C236.125 44.817 235.527 45.272 234.695 45.272C233.863 45.272 233.265 44.817 232.901 43.933C232.641 43.296 232.511 42.438 232.511 41.359C232.511 40.267 232.641 39.409 232.901 38.785C233.265 37.888 233.863 37.446 234.695 37.446ZM248.197 40.917C247.495 40.917 246.962 41.164 246.598 41.684C246.26 42.126 246.104 42.724 246.104 43.465C246.104 44.193 246.26 44.778 246.598 45.246C246.962 45.74 247.495 46 248.197 46C248.886 46 249.419 45.74 249.796 45.246C250.121 44.791 250.29 44.193 250.29 43.465C250.29 42.724 250.121 42.126 249.796 41.684C249.419 41.164 248.886 40.917 248.197 40.917ZM247.079 36.536L241.866 46.182H242.711L247.911 36.536H247.079ZM241.593 36.718C240.891 36.718 240.358 36.965 239.994 37.485C239.656 37.927 239.5 38.525 239.5 39.266C239.5 39.994 239.656 40.579 239.994 41.047C240.358 41.541 240.891 41.801 241.593 41.801C242.282 41.801 242.815 41.541 243.192 41.047C243.517 40.592 243.686 39.994 243.686 39.266C243.686 38.525 243.517 37.927 243.192 37.485C242.815 36.965 242.282 36.718 241.593 36.718ZM248.197 41.619C248.587 41.619 248.873 41.801 249.068 42.178C249.224 42.49 249.315 42.919 249.315 43.465C249.315 43.998 249.224 44.414 249.068 44.726C248.873 45.103 248.587 45.298 248.197 45.298C247.794 45.298 247.508 45.103 247.326 44.739C247.157 44.427 247.079 43.998 247.079 43.465C247.079 42.906 247.157 42.477 247.326 42.165C247.508 41.801 247.794 41.619 248.197 41.619ZM241.593 37.42C241.983 37.42 242.269 37.602 242.451 37.979C242.62 38.291 242.711 38.72 242.711 39.266C242.711 39.799 242.62 40.215 242.464 40.527C242.269 40.904 241.983 41.099 241.593 41.099C241.19 41.099 240.904 40.904 240.722 40.54C240.553 40.228 240.475 39.799 240.475 39.266C240.475 38.707 240.553 38.278 240.722 37.966C240.904 37.602 241.19 37.42 241.593 37.42ZM255.59 36.718L258.255 46H259.438L261.557 38.265H261.596L263.702 46H264.885L267.55 36.718H266.354L264.313 44.505H264.261L262.155 36.718H260.998L258.879 44.505H258.827L256.786 36.718H255.59ZM269.275 36.744C269.054 36.744 268.872 36.809 268.716 36.965C268.56 37.095 268.495 37.277 268.495 37.511C268.495 37.732 268.56 37.914 268.716 38.07C268.872 38.213 269.054 38.291 269.275 38.291C269.496 38.291 269.678 38.213 269.834 38.07C269.99 37.914 270.068 37.732 270.068 37.511C270.068 37.277 269.99 37.095 269.834 36.965C269.678 36.809 269.496 36.744 269.275 36.744ZM268.755 39.279V46H269.795V39.279H268.755ZM276.71 36.536V40.514C276.19 39.565 275.449 39.097 274.487 39.097C273.525 39.097 272.784 39.448 272.238 40.176C271.731 40.826 271.484 41.632 271.484 42.62C271.484 43.634 271.731 44.466 272.238 45.116C272.784 45.818 273.551 46.182 274.539 46.182C275.553 46.182 276.307 45.753 276.775 44.895V46H277.75V36.536H276.71ZM274.708 39.955C275.306 39.955 275.8 40.189 276.177 40.683C276.541 41.164 276.736 41.801 276.736 42.581V42.711C276.736 43.465 276.567 44.076 276.242 44.544C275.865 45.064 275.345 45.324 274.669 45.324C273.941 45.324 273.395 45.051 273.031 44.531C272.706 44.063 272.55 43.426 272.55 42.62C272.55 41.814 272.706 41.19 273.044 40.735C273.408 40.215 273.967 39.955 274.708 39.955ZM281.155 37.108L280.128 37.537V39.279H278.776V40.15H280.128V44.427C280.128 44.934 280.232 45.311 280.453 45.571C280.687 45.857 281.09 46 281.636 46H282.65V45.129H281.792C281.558 45.129 281.389 45.064 281.298 44.96C281.194 44.856 281.155 44.674 281.155 44.427V40.15H282.819V39.279H281.155V37.108ZM283.982 36.536V46H285.022V42.165C285.022 41.541 285.191 41.008 285.542 40.592C285.88 40.176 286.309 39.968 286.829 39.968C287.388 39.968 287.817 40.137 288.129 40.475C288.415 40.813 288.571 41.294 288.571 41.918V46H289.611V41.762C289.611 40.904 289.403 40.241 288.987 39.786C288.571 39.318 287.96 39.097 287.18 39.097C286.725 39.097 286.322 39.201 285.958 39.409C285.568 39.63 285.256 39.955 285.022 40.384V36.536H283.982Z" fill="#EDA20C"/>
<rect x="39" y="60" width="253" height="119" fill="white"/>
<rect x="39" y="60" width="253" height="59" fill="#F2F2F2"/>
<rect opacity="0.2" x="53" y="60" width="41" height="119" fill="#EDA20C"/>
<rect opacity="0.2" x="145" y="60" width="41" height="119" fill="#EDA20C"/>
<rect opacity="0.2" x="99" y="60" width="41" height="119" fill="#EDA20C"/>
<rect opacity="0.2" x="191" y="60" width="41" height="119" fill="#EDA20C"/>
<rect opacity="0.2" x="237" y="60" width="41" height="119" fill="#EDA20C"/>
<rect x="237" y="53" width="41" height="3" fill="#EDA20C"/>
<path d="M60.8274 78H61.7722V72.7156H60.8311L59.4504 73.6824V74.5906L60.7651 73.6677H60.8274V78ZM65.2146 78.1318C66.478 78.1318 67.2288 77.1064 67.2288 75.3596C67.2288 73.6055 66.467 72.5837 65.2146 72.5837C63.9585 72.5837 63.1968 73.6055 63.1968 75.3523C63.1968 77.1064 63.9475 78.1318 65.2146 78.1318ZM65.2146 77.3481C64.5444 77.3481 64.1526 76.6523 64.1526 75.3523C64.1526 74.0632 64.5518 73.3711 65.2146 73.3711C65.8774 73.3711 66.2729 74.0596 66.2729 75.3523C66.2729 76.6523 65.8848 77.3481 65.2146 77.3481ZM68.906 77.4397C69.2539 77.4397 69.4919 77.1907 69.4919 76.8611C69.4919 76.5278 69.2539 76.2825 68.906 76.2825C68.5618 76.2825 68.3201 76.5278 68.3201 76.8611C68.3201 77.1907 68.5618 77.4397 68.906 77.4397ZM68.906 74.6931C69.2539 74.6931 69.4919 74.4478 69.4919 74.1182C69.4919 73.7849 69.2539 73.5396 68.906 73.5396C68.5618 73.5396 68.3201 73.7849 68.3201 74.1182C68.3201 74.4478 68.5618 74.6931 68.906 74.6931ZM71.9675 78H72.9124V72.7156H71.9712L70.5906 73.6824V74.5906L71.9053 73.6677H71.9675V78ZM76.3181 78.1318C77.49 78.1318 78.2773 77.3774 78.2773 76.2751C78.2773 75.2388 77.5669 74.5027 76.5635 74.5027C76.0544 74.5027 75.6809 74.6821 75.4465 74.9971H75.3843L75.5125 73.5139H77.9624V72.7156H74.78L74.5054 75.7551H75.3623C75.5564 75.4292 75.897 75.2351 76.3328 75.2351C76.9407 75.2351 77.3655 75.6636 77.3655 76.2971C77.3655 76.927 76.9443 77.3445 76.3254 77.3445C75.7798 77.3445 75.366 77.0222 75.3074 76.5352H74.4211C74.4651 77.4653 75.2231 78.1318 76.3181 78.1318Z" fill="#A3A3A3"/>
<g clip-path="url(#clip0)">
<path opacity="0.35" d="M267.646 73.0205H257.854C256.934 73.0205 256.188 73.7667 256.188 74.6872V77.8122C256.188 78.7326 256.934 79.4788 257.854 79.4788H267.646C268.566 79.4788 269.312 78.7326 269.312 77.8122V74.6872C269.312 73.7667 268.566 73.0205 267.646 73.0205Z" stroke="black" stroke-width="0.625"/>
<path opacity="0.4" d="M270.25 75V77.5C270.753 77.2883 271.08 76.7957 271.08 76.25C271.08 75.7043 270.753 75.2117 270.25 75Z" fill="black"/>
<path d="M267.542 73.958H257.958C257.498 73.958 257.125 74.3311 257.125 74.7913V77.708C257.125 78.1682 257.498 78.5413 257.958 78.5413H267.542C268.002 78.5413 268.375 78.1682 268.375 77.708V74.7913C268.375 74.3311 268.002 73.958 267.542 73.958Z" fill="#A3A3A3"/>
</g>
<g clip-path="url(#clip1)">
<path d="M247.956 74.1304C249.341 74.1304 250.673 74.6626 251.677 75.6168C251.753 75.6905 251.874 75.6896 251.948 75.6147L252.67 74.8856C252.708 74.8476 252.729 74.7962 252.729 74.7427C252.729 74.6892 252.707 74.6381 252.669 74.6006C250.034 72.0759 245.878 72.0759 243.244 74.6006C243.206 74.638 243.184 74.6892 243.184 74.7427C243.183 74.7962 243.204 74.8476 243.242 74.8856L243.965 75.6147C244.039 75.6897 244.16 75.6906 244.235 75.6168C245.239 74.6625 246.571 74.1304 247.956 74.1304ZM247.956 76.5027C248.717 76.5026 249.451 76.7854 250.015 77.2962C250.092 77.3687 250.212 77.3671 250.286 77.2927L251.008 76.5635C251.046 76.5252 251.067 76.4734 251.066 76.4194C251.066 76.3655 251.044 76.3141 251.005 76.2766C249.287 74.6789 246.627 74.6789 244.91 76.2766C244.871 76.3141 244.849 76.3655 244.848 76.4195C244.848 76.4734 244.869 76.5253 244.907 76.5635L245.628 77.2927C245.703 77.3671 245.823 77.3687 245.899 77.2962C246.463 76.7858 247.196 76.503 247.956 76.5027ZM249.343 78.2429C249.382 78.205 249.403 78.1529 249.402 78.0988C249.401 78.0447 249.378 77.9935 249.338 77.9572C248.54 77.2829 247.373 77.2829 246.575 77.9572C246.535 77.9935 246.512 78.0447 246.511 78.0987C246.51 78.1528 246.531 78.205 246.569 78.2429L247.818 79.5027C247.855 79.5397 247.904 79.5605 247.956 79.5605C248.009 79.5605 248.058 79.5397 248.095 79.5027L249.343 78.2429Z" fill="#A3A3A3"/>
</g>
<g clip-path="url(#clip2)">
<path d="M230.042 77.0837C230.387 77.0837 230.667 77.3635 230.667 77.7087V78.9587C230.667 79.3038 230.387 79.5837 230.042 79.5837H229.417C229.072 79.5837 228.792 79.3038 228.792 78.9587V77.7087C228.792 77.3635 229.072 77.0837 229.417 77.0837H230.042ZM232.333 75.8337H232.958C233.304 75.8337 233.583 76.1135 233.583 76.4587V78.9587C233.583 79.3038 233.304 79.5837 232.958 79.5837H232.333C231.988 79.5837 231.708 79.3038 231.708 78.9587V76.4587C231.708 76.1135 231.988 75.8337 232.333 75.8337ZM235.25 74.3753H235.875C236.22 74.3753 236.5 74.6551 236.5 75.0003V78.9587C236.5 79.3038 236.22 79.5837 235.875 79.5837H235.25C234.905 79.5837 234.625 79.3038 234.625 78.9587V75.0003C234.625 74.6551 234.905 74.3753 235.25 74.3753ZM238.167 72.917H238.792C239.137 72.917 239.417 73.1968 239.417 73.542V78.9587C239.417 79.3038 239.137 79.5837 238.792 79.5837H238.167C237.822 79.5837 237.542 79.3038 237.542 78.9587V73.542C237.542 73.1968 237.822 72.917 238.167 72.917Z" fill="#A3A3A3"/>
</g>
<defs>
<clipPath id="clip0">
<rect width="15.625" height="7.5" fill="white" transform="translate(255.875 72.5)"/>
</clipPath>
<clipPath id="clip1">
<rect width="10" height="7.5" fill="white" transform="translate(242.75 72.5)"/>
</clipPath>
<clipPath id="clip2">
<rect width="11.25" height="7.5" fill="white" transform="translate(228.375 72.5)"/>
</clipPath>
</defs>
</svg>
