<svg width="335" height="179" viewBox="0 0 335 179" fill="none" xmlns="http://www.w3.org/2000/svg">
<rect width="335" height="179" fill="#FAFAFA"/>
<path d="M43.004 31.405V36.137H43.927V31.405H43.004ZM40.534 31.977V35.812H41.431V31.977H40.534ZM45.292 32.744C45.578 33.407 46.072 34.018 46.787 34.564C46.111 34.824 45.318 35.032 44.421 35.214L44.85 35.994C44.876 35.981 44.902 35.981 44.941 35.981C43.979 36.631 43.056 37.138 42.172 37.528C42.003 37.58 41.717 37.619 41.314 37.619L41.483 38.425L45.032 38.243C43.732 38.828 42.484 39.257 41.275 39.53C41.002 39.53 40.729 39.517 40.443 39.504L40.638 40.388C41.99 40.362 43.459 40.31 45.071 40.232V42C45.071 42.286 44.928 42.442 44.655 42.442C44.317 42.442 43.953 42.416 43.576 42.377L43.771 43.261H44.967C45.669 43.261 46.033 42.91 46.033 42.221V40.18C47.112 40.115 48.256 40.05 49.465 39.972C49.725 40.258 49.972 40.544 50.193 40.83L50.934 40.31C50.401 39.647 49.634 38.867 48.62 37.97L47.892 38.438C48.23 38.737 48.542 39.036 48.841 39.335C46.943 39.465 45.058 39.556 43.186 39.608C45.136 39.062 46.969 38.269 48.672 37.255L47.879 36.735C47.385 37.034 46.891 37.307 46.41 37.567C45.409 37.619 44.382 37.684 43.342 37.749C44.2 37.359 45.032 36.904 45.825 36.371L45.214 35.916C46.124 35.708 46.93 35.435 47.619 35.123C48.373 35.565 49.309 35.968 50.427 36.319L50.921 35.526C49.985 35.266 49.179 34.98 48.477 34.668C49.361 34.122 49.972 33.459 50.297 32.679V31.899H44.72V32.744H45.292ZM47.606 34.2C46.917 33.771 46.423 33.29 46.124 32.744H49.348C48.984 33.303 48.399 33.784 47.606 34.2ZM47.398 40.726L46.93 41.428C48.191 41.831 49.413 42.39 50.609 43.092L51.103 42.312C49.985 41.688 48.75 41.168 47.398 40.726ZM43.342 40.739C42.406 41.337 41.21 41.818 39.754 42.195L40.17 43.04C41.665 42.598 42.913 42.039 43.901 41.376L43.342 40.739ZM57.512 37.918V38.503H59.371V39.023C59.358 39.218 59.345 39.413 59.319 39.595H56.121V40.427H59.085C58.955 40.726 58.799 40.999 58.604 41.233C58.084 41.779 57.2 42.208 55.926 42.533L56.42 43.326C57.759 42.962 58.721 42.455 59.319 41.818C59.644 41.428 59.891 40.973 60.06 40.427H63.596V39.595H60.229L60.268 39.023V38.503H62.27V37.801C62.712 38.282 63.284 38.737 63.973 39.179L64.545 38.464C63.505 37.905 62.738 37.281 62.244 36.592H64.259V35.773H59.189C59.345 35.487 59.501 35.175 59.644 34.85H63.284V34.083H59.943C60.034 33.784 60.125 33.472 60.216 33.16H63.817V32.367H60.398C60.45 32.081 60.489 31.769 60.541 31.457L59.605 31.34C59.553 31.678 59.501 32.029 59.436 32.367H56.225V33.16H59.267C59.176 33.472 59.072 33.771 58.968 34.083H56.576V34.85H58.656C58.5 35.162 58.344 35.474 58.162 35.773H55.588V36.592H57.577C56.953 37.333 56.199 37.944 55.289 38.412L55.783 39.179C56.42 38.815 56.992 38.399 57.512 37.918ZM58.669 36.592H61.36C61.568 36.969 61.854 37.346 62.205 37.723H57.707C58.045 37.385 58.37 37.008 58.669 36.592ZM53.391 31.717L52.624 32.185C53.43 33.29 54.08 34.304 54.561 35.227L55.328 34.681C54.886 33.836 54.236 32.848 53.391 31.717ZM54.535 37.125C53.976 38.971 53.313 40.778 52.559 42.546L53.43 42.936C54.145 41.22 54.795 39.4 55.38 37.463L54.535 37.125ZM60.658 40.973L60.216 41.636C61.282 42.052 62.309 42.637 63.31 43.378L63.817 42.598C62.868 41.961 61.815 41.415 60.658 40.973Z" fill="black" fill-opacity="0.58"/>
<path d="M228.9 36.536C227.925 36.536 227.171 36.783 226.625 37.29C226.118 37.745 225.871 38.317 225.871 38.993C225.871 39.487 225.988 39.903 226.222 40.241C226.469 40.605 226.833 40.878 227.327 41.047V41.073C226.833 41.19 226.43 41.463 226.092 41.879C225.728 42.321 225.546 42.841 225.546 43.439C225.546 44.258 225.832 44.921 226.404 45.415C226.989 45.922 227.821 46.182 228.9 46.182C229.966 46.182 230.798 45.922 231.396 45.415C231.968 44.921 232.254 44.258 232.254 43.439C232.254 42.841 232.072 42.321 231.708 41.879C231.37 41.463 230.954 41.19 230.473 41.073V41.047C230.954 40.878 231.318 40.605 231.578 40.241C231.812 39.903 231.929 39.487 231.929 38.993C231.929 38.317 231.669 37.745 231.175 37.29C230.629 36.783 229.862 36.536 228.9 36.536ZM228.9 37.407C229.55 37.407 230.07 37.576 230.447 37.914C230.759 38.2 230.928 38.577 230.928 39.032C230.928 39.5 230.785 39.89 230.499 40.176C230.148 40.514 229.615 40.696 228.9 40.696C228.172 40.696 227.639 40.514 227.301 40.176C227.015 39.89 226.872 39.5 226.872 39.032C226.872 38.577 227.028 38.2 227.353 37.914C227.717 37.576 228.237 37.407 228.9 37.407ZM228.9 41.528C229.641 41.528 230.226 41.71 230.642 42.087C231.006 42.425 231.201 42.88 231.201 43.439C231.201 43.985 231.006 44.427 230.642 44.765C230.226 45.129 229.654 45.311 228.9 45.311C228.146 45.311 227.561 45.129 227.171 44.778C226.781 44.44 226.599 43.985 226.599 43.439C226.599 42.88 226.781 42.425 227.171 42.087C227.574 41.71 228.146 41.528 228.9 41.528ZM236.812 39.097C235.798 39.097 235.057 39.526 234.576 40.384V39.279H233.601V48.574H234.641V44.778C235.161 45.714 235.902 46.182 236.864 46.182C237.826 46.182 238.567 45.818 239.113 45.116C239.607 44.466 239.867 43.647 239.867 42.659C239.867 41.645 239.607 40.826 239.1 40.176C238.541 39.448 237.774 39.097 236.812 39.097ZM236.682 39.955C237.397 39.955 237.943 40.215 238.32 40.761C238.632 41.229 238.801 41.866 238.801 42.659C238.801 43.465 238.632 44.102 238.294 44.57C237.917 45.064 237.371 45.324 236.643 45.324C236.019 45.324 235.538 45.077 235.174 44.609C234.784 44.128 234.602 43.504 234.602 42.724V42.594C234.602 41.84 234.771 41.216 235.109 40.748C235.473 40.215 236.006 39.955 236.682 39.955ZM243.012 37.108L241.985 37.537V39.279H240.633V40.15H241.985V44.427C241.985 44.934 242.089 45.311 242.31 45.571C242.544 45.857 242.947 46 243.493 46H244.507V45.129H243.649C243.415 45.129 243.246 45.064 243.155 44.96C243.051 44.856 243.012 44.674 243.012 44.427V40.15H244.676V39.279H243.012V37.108Z" fill="#296BEF"/>
<rect x="39" y="60" width="253" height="119" fill="white"/>
<rect x="39" y="60" width="253" height="59" fill="#F2F2F2"/>
<rect opacity="0.2" x="94" y="60" width="5" height="119" fill="#296BEF"/>
<rect opacity="0.2" x="140" y="60" width="5" height="119" fill="#296BEF"/>
<rect opacity="0.2" x="186" y="60" width="5" height="119" fill="#296BEF"/>
<rect opacity="0.2" x="232" y="60" width="5" height="119" fill="#296BEF"/>
<rect x="232" y="53" width="5" height="3" fill="#296BEF"/>
<path d="M60.8274 78H61.7722V72.7156H60.8311L59.4504 73.6824V74.5906L60.7651 73.6677H60.8274V78ZM65.2146 78.1318C66.478 78.1318 67.2288 77.1064 67.2288 75.3596C67.2288 73.6055 66.467 72.5837 65.2146 72.5837C63.9585 72.5837 63.1968 73.6055 63.1968 75.3523C63.1968 77.1064 63.9475 78.1318 65.2146 78.1318ZM65.2146 77.3481C64.5444 77.3481 64.1526 76.6523 64.1526 75.3523C64.1526 74.0632 64.5518 73.3711 65.2146 73.3711C65.8774 73.3711 66.2729 74.0596 66.2729 75.3523C66.2729 76.6523 65.8848 77.3481 65.2146 77.3481ZM68.906 77.4397C69.2539 77.4397 69.4919 77.1907 69.4919 76.8611C69.4919 76.5278 69.2539 76.2825 68.906 76.2825C68.5618 76.2825 68.3201 76.5278 68.3201 76.8611C68.3201 77.1907 68.5618 77.4397 68.906 77.4397ZM68.906 74.6931C69.2539 74.6931 69.4919 74.4478 69.4919 74.1182C69.4919 73.7849 69.2539 73.5396 68.906 73.5396C68.5618 73.5396 68.3201 73.7849 68.3201 74.1182C68.3201 74.4478 68.5618 74.6931 68.906 74.6931ZM71.9675 78H72.9124V72.7156H71.9712L70.5906 73.6824V74.5906L71.9053 73.6677H71.9675V78ZM76.3181 78.1318C77.49 78.1318 78.2773 77.3774 78.2773 76.2751C78.2773 75.2388 77.5669 74.5027 76.5635 74.5027C76.0544 74.5027 75.6809 74.6821 75.4465 74.9971H75.3843L75.5125 73.5139H77.9624V72.7156H74.78L74.5054 75.7551H75.3623C75.5564 75.4292 75.897 75.2351 76.3328 75.2351C76.9407 75.2351 77.3655 75.6636 77.3655 76.2971C77.3655 76.927 76.9443 77.3445 76.3254 77.3445C75.7798 77.3445 75.366 77.0222 75.3074 76.5352H74.4211C74.4651 77.4653 75.2231 78.1318 76.3181 78.1318Z" fill="#A3A3A3"/>
<g clip-path="url(#clip0)">
<path opacity="0.35" d="M267.646 73.0205H257.854C256.934 73.0205 256.188 73.7667 256.188 74.6872V77.8122C256.188 78.7326 256.934 79.4788 257.854 79.4788H267.646C268.566 79.4788 269.312 78.7326 269.312 77.8122V74.6872C269.312 73.7667 268.566 73.0205 267.646 73.0205Z" stroke="black" stroke-width="0.625"/>
<path opacity="0.4" d="M270.25 75V77.5C270.753 77.2883 271.08 76.7957 271.08 76.25C271.08 75.7043 270.753 75.2117 270.25 75Z" fill="black"/>
<path d="M267.542 73.958H257.958C257.498 73.958 257.125 74.3311 257.125 74.7913V77.708C257.125 78.1682 257.498 78.5413 257.958 78.5413H267.542C268.002 78.5413 268.375 78.1682 268.375 77.708V74.7913C268.375 74.3311 268.002 73.958 267.542 73.958Z" fill="#A3A3A3"/>
</g>
<g clip-path="url(#clip1)">
<path d="M247.956 74.1304C249.341 74.1304 250.673 74.6626 251.677 75.6168C251.753 75.6905 251.874 75.6896 251.948 75.6147L252.67 74.8856C252.708 74.8476 252.729 74.7962 252.729 74.7427C252.729 74.6892 252.707 74.6381 252.669 74.6006C250.034 72.0759 245.878 72.0759 243.244 74.6006C243.206 74.638 243.184 74.6892 243.184 74.7427C243.183 74.7962 243.204 74.8476 243.242 74.8856L243.965 75.6147C244.039 75.6897 244.16 75.6906 244.235 75.6168C245.239 74.6625 246.571 74.1304 247.956 74.1304ZM247.956 76.5027C248.717 76.5026 249.451 76.7854 250.015 77.2962C250.092 77.3687 250.212 77.3671 250.286 77.2927L251.008 76.5635C251.046 76.5252 251.067 76.4734 251.066 76.4194C251.066 76.3655 251.044 76.3141 251.005 76.2766C249.287 74.6789 246.627 74.6789 244.91 76.2766C244.871 76.3141 244.849 76.3655 244.848 76.4195C244.848 76.4734 244.869 76.5253 244.907 76.5635L245.628 77.2927C245.703 77.3671 245.823 77.3687 245.899 77.2962C246.463 76.7858 247.196 76.503 247.956 76.5027ZM249.343 78.2429C249.382 78.205 249.403 78.1529 249.402 78.0988C249.401 78.0447 249.378 77.9935 249.338 77.9572C248.54 77.2829 247.373 77.2829 246.575 77.9572C246.535 77.9935 246.512 78.0447 246.511 78.0987C246.51 78.1528 246.531 78.205 246.569 78.2429L247.818 79.5027C247.855 79.5397 247.904 79.5605 247.956 79.5605C248.009 79.5605 248.058 79.5397 248.095 79.5027L249.343 78.2429Z" fill="#A3A3A3"/>
</g>
<g clip-path="url(#clip2)">
<path d="M230.042 77.0837C230.387 77.0837 230.667 77.3635 230.667 77.7087V78.9587C230.667 79.3038 230.387 79.5837 230.042 79.5837H229.417C229.072 79.5837 228.792 79.3038 228.792 78.9587V77.7087C228.792 77.3635 229.072 77.0837 229.417 77.0837H230.042ZM232.333 75.8337H232.958C233.304 75.8337 233.583 76.1135 233.583 76.4587V78.9587C233.583 79.3038 233.304 79.5837 232.958 79.5837H232.333C231.988 79.5837 231.708 79.3038 231.708 78.9587V76.4587C231.708 76.1135 231.988 75.8337 232.333 75.8337ZM235.25 74.3753H235.875C236.22 74.3753 236.5 74.6551 236.5 75.0003V78.9587C236.5 79.3038 236.22 79.5837 235.875 79.5837H235.25C234.905 79.5837 234.625 79.3038 234.625 78.9587V75.0003C234.625 74.6551 234.905 74.3753 235.25 74.3753ZM238.167 72.917H238.792C239.137 72.917 239.417 73.1968 239.417 73.542V78.9587C239.417 79.3038 239.137 79.5837 238.792 79.5837H238.167C237.822 79.5837 237.542 79.3038 237.542 78.9587V73.542C237.542 73.1968 237.822 72.917 238.167 72.917Z" fill="#A3A3A3"/>
</g>
<defs>
<clipPath id="clip0">
<rect width="15.625" height="7.5" fill="white" transform="translate(255.875 72.5)"/>
</clipPath>
<clipPath id="clip1">
<rect width="10" height="7.5" fill="white" transform="translate(242.75 72.5)"/>
</clipPath>
<clipPath id="clip2">
<rect width="11.25" height="7.5" fill="white" transform="translate(228.375 72.5)"/>
</clipPath>
</defs>
</svg>
