<svg width="244" height="100" viewBox="0 0 244 100" fill="none" xmlns="http://www.w3.org/2000/svg">
<g clip-path="url(#clip0)">
<g clip-path="url(#clip1)">
<rect x="42" y="86" width="160" height="4" fill="black" fill-opacity="0.03"/>
<rect x="42" y="70" width="160" height="4" fill="black" fill-opacity="0.03"/>
<path fill-rule="evenodd" clip-rule="evenodd" d="M132.625 37.8499C134.736 36.0255 136.393 33.69 137.404 31.0358H216L217 138.036H29V31.0358H105.5V30.6606C106.528 33.564 108.322 36.1048 110.64 38.0396L109.922 40.5782C109.702 41.3564 110.031 42.1855 110.725 42.6004L112.023 43.3757C117.958 46.9222 125.362 46.9222 131.297 43.3757L132.594 42.6006C133.289 42.1856 133.618 41.3563 133.398 40.578L132.625 37.8499ZM104.642 23.0358H24C21.7909 23.0358 20 24.8266 20 27.0358V142.036C20 144.245 21.7909 146.036 24 146.036H220C222.209 146.036 224 140.245 224 138.036V27.0358C224 24.8266 222.209 23.0358 220 23.0358H138.4C137.431 14.5729 130.243 8 121.521 8C112.799 8 105.611 14.5729 104.642 23.0358ZM129.192 34.6124C127.786 35.7308 126.125 36.5429 124.311 36.948C123.684 36.1781 122.729 35.6863 121.66 35.6863C120.59 35.6863 119.635 36.1781 119.008 36.9479C117.194 36.5427 115.534 35.7306 114.128 34.6124H129.192ZM133.771 25.1275C133.771 28.0504 132.736 30.7315 131.012 32.824H125.992V31.5358C125.992 31.2596 125.768 31.0358 125.492 31.0358H117.55C117.274 31.0358 117.05 31.2596 117.05 31.5358V32.824H112.308C110.584 30.7315 109.548 28.0504 109.548 25.1275C109.548 18.4385 114.971 13.016 121.66 13.016C128.349 13.016 133.771 18.4385 133.771 25.1275ZM122.814 17.1971L121.859 14.2582L120.904 17.1971H117.814L120.314 19.0135L119.359 21.9524L121.859 20.1361L124.359 21.9524L123.404 19.0135L125.904 17.1971H122.814ZM119.665 24.9778L119.803 23.3122L118.713 24.5791L117.171 23.934L118.039 25.3621L116.949 26.629L118.575 26.2447L119.444 27.6728L119.581 26.0072L121.207 25.6229L119.665 24.9778ZM123.472 23.3122L123.609 24.9778L122.067 25.6229L123.694 26.0072L123.831 27.6728L124.699 26.2447L126.325 26.629L125.236 25.3621L126.104 23.934L124.562 24.5791L123.472 23.3122ZM127.91 20.8157L128.615 19.3006L128.935 20.941L130.594 21.1436L129.133 21.9547L129.453 23.5951L128.23 22.456L126.769 23.2672L127.474 21.7521L126.251 20.613L127.91 20.8157ZM114.787 19.3006L115.492 20.8157L117.151 20.613L115.928 21.7521L116.633 23.2672L115.172 22.456L113.949 23.5951L114.269 21.9547L112.808 21.1436L114.467 20.941L114.787 19.3006Z" fill="black" fill-opacity="0.03"/>
<rect x="92" y="54" width="60" height="4" fill="black" fill-opacity="0.03"/>
</g>
<rect x="1.5" y="1.5" width="241" height="109" rx="2.5" stroke="black" stroke-opacity="0.03" stroke-width="3"/>
</g>
<defs>
<clipPath id="clip0">
<path d="M0 0H244V100H0V0Z" fill="white"/>
</clipPath>
<clipPath id="clip1">
<rect width="244" height="112" rx="4" fill="white"/>
</clipPath>
</defs>
</svg>
