
<svg width="132" height="66" viewBox="0 0 132 66" fill="none" xmlns="http://www.w3.org/2000/svg">
<rect x="6" y="62" width="122" height="4" fill="black" fill-opacity="0.03"/>
<rect x="6" y="46" width="122" height="4" fill="black" fill-opacity="0.03"/>
<path d="M53.906 2.914V4.795H50.012V10.163H51.167V9.558H53.906V13.232H55.094V9.558H57.844V10.163H58.999V4.795H55.094V2.914H53.906ZM51.167 8.436V5.917H53.906V8.436H51.167ZM55.094 8.436V5.917H57.844V8.436H55.094ZM60.693 9.393V10.515H64.906V13.166H66.072V10.515H70.318V9.393H66.072V8.436H64.906V9.393H60.693ZM68.822 8.425C69.317 8.425 69.691 8.326 69.933 8.15C70.175 7.963 70.362 7.369 70.472 6.379L69.394 6.027C69.35 6.687 69.251 7.083 69.119 7.215C69.009 7.325 68.833 7.391 68.602 7.391H67.106C66.864 7.391 66.743 7.292 66.743 7.094V6.269C67.975 5.675 69.064 4.982 69.988 4.201L69.218 3.398C68.558 3.992 67.733 4.542 66.743 5.048V3.123H65.632V5.565C65.027 5.818 64.367 6.06 63.652 6.291L64.29 7.248C64.741 7.094 65.192 6.929 65.632 6.753V7.325C65.632 8.051 66.017 8.425 66.787 8.425H68.822ZM62.09 6.17V8.777H63.212V5.147C63.74 4.575 64.169 3.981 64.499 3.365L63.52 2.903C62.882 4.025 61.881 5.004 60.539 5.829L60.913 7.006C61.331 6.731 61.727 6.456 62.09 6.17ZM77.039 2.98H75.873C75.873 3.398 75.862 3.97 75.862 4.707C75.774 7.864 74.267 10.328 71.319 12.088L72.023 13.122C74.311 11.648 75.818 9.789 76.544 7.545C77.391 9.866 78.843 11.714 80.9 13.1L81.67 12.088C79.173 10.559 77.6 8.348 76.962 5.455C77.006 4.773 77.039 3.948 77.039 2.98ZM84.64 9.14H87.962C88.05 9.459 88.16 9.767 88.292 10.053C88.732 10.999 89.227 11.736 89.799 12.242C90.371 12.737 90.921 12.99 91.46 13.001C91.724 12.99 91.955 12.847 92.142 12.572C92.329 12.286 92.505 11.681 92.659 10.735L91.636 10.185C91.57 10.889 91.515 11.318 91.449 11.494C91.383 11.67 91.295 11.769 91.207 11.769C90.91 11.758 90.591 11.593 90.25 11.274C89.898 10.944 89.557 10.394 89.227 9.624C89.161 9.47 89.106 9.316 89.051 9.14H92.252V8.04H88.798C88.732 7.677 88.677 7.27 88.633 6.83H91.581V3.288H83.485V11.318C83.485 11.56 83.386 11.736 83.188 11.846L83.496 12.946C85.124 12.638 86.466 12.308 87.544 11.967L87.269 10.878C86.4 11.175 85.52 11.417 84.64 11.604V9.14ZM87.489 6.83C87.544 7.248 87.61 7.644 87.687 8.04H84.64V6.83H87.489ZM90.448 4.388V5.752H84.64V4.388H90.448ZM94.1 5.081V6.181H95.97V8.469H93.539V9.591H103.461V8.469H101.03V6.181H102.911V5.081H101.03V2.98H99.875V5.081H97.125V2.936H95.97V5.081H94.1ZM97.125 8.469V6.181H99.875V8.469H97.125ZM96.795 9.723C95.915 10.636 94.815 11.439 93.506 12.121L94.32 13.166C95.64 12.396 96.762 11.505 97.664 10.493L96.795 9.723ZM100.304 9.745L99.479 10.548C100.821 11.483 101.855 12.352 102.581 13.155L103.494 12.242C102.625 11.417 101.558 10.581 100.304 9.745ZM114.186 3.596H109.698V12.814H110.809V11.89H113.064V12.682H114.186V3.596ZM110.809 10.812V4.663H113.064V10.812H110.809ZM104.737 5.873V6.94H106.541V6.995C106.079 8.073 105.375 9.041 104.418 9.899L104.913 11.164C105.562 10.427 106.101 9.624 106.541 8.744V13.023H107.641V8.458C107.971 8.876 108.367 9.426 108.829 10.108L109.5 9.107C108.873 8.447 108.257 7.853 107.641 7.336V6.94H109.401V5.873H107.641V4.454C108.213 4.322 108.785 4.146 109.346 3.948L108.807 3.002C107.795 3.387 106.42 3.651 104.704 3.794L105.078 4.817C105.562 4.784 106.057 4.729 106.541 4.652V5.873H104.737ZM117.772 5.103V6.137H119.917V7.391H118.124V8.403H119.917V9.844H117.475V10.878H123.536V9.844H122.502L123.041 9.602C122.865 9.195 122.645 8.821 122.403 8.48L121.49 8.777C121.71 9.085 121.908 9.437 122.084 9.844H121.083V8.403H122.876V7.391H121.083V6.137H123.217V5.103H117.772ZM125.164 3.354H115.836V13.133H117.002V12.726H123.998V13.133H125.164V3.354ZM117.002 11.648V4.432H123.998V11.648H117.002Z" fill="black" fill-opacity="0.06"/>
<path d="M46.99 25.619H50.773V26.841H47.77V31.391H49.07V30.858H53.984V31.391H55.271V26.841H52.086V25.619H56.142V24.384H52.086V23.201H55.635V19.73H45.703V24.241C45.69 26.763 45.248 28.83 44.377 30.429L45.443 31.391C46.314 29.74 46.834 27.816 46.99 25.619ZM50.773 23.201V24.384H47.042V23.201H50.773ZM49.07 29.636V28.063H53.984V29.636H49.07ZM54.283 20.965V21.979H47.042V20.965H54.283ZM65.32 26.62H69.246C69.35 26.997 69.48 27.361 69.636 27.699C70.156 28.817 70.741 29.688 71.417 30.286C72.093 30.871 72.743 31.17 73.38 31.183C73.692 31.17 73.965 31.001 74.186 30.676C74.407 30.338 74.615 29.623 74.797 28.505L73.588 27.855C73.51 28.687 73.445 29.194 73.367 29.402C73.289 29.61 73.185 29.727 73.081 29.727C72.73 29.714 72.353 29.519 71.95 29.142C71.534 28.752 71.131 28.102 70.741 27.192C70.663 27.01 70.598 26.828 70.533 26.62H74.316V25.32H70.234C70.156 24.891 70.091 24.41 70.039 23.89H73.523V19.704H63.955V29.194C63.955 29.48 63.838 29.688 63.604 29.818L63.968 31.118C65.892 30.754 67.478 30.364 68.752 29.961L68.427 28.674C67.4 29.025 66.36 29.311 65.32 29.532V26.62ZM68.687 23.89C68.752 24.384 68.83 24.852 68.921 25.32H65.32V23.89H68.687ZM72.184 21.004V22.616H65.32V21.004H72.184ZM85.821 19.197C85.743 19.574 85.626 19.938 85.496 20.289H82.857V26.412H81.401V27.66H88.369C86.887 28.648 84.599 29.402 81.479 29.948L82.09 31.17C84.638 30.728 86.822 29.974 88.642 28.895C88.837 28.765 89.032 28.648 89.227 28.518V29.792C89.227 30.026 89.123 30.156 88.928 30.156L87.628 30.091L87.966 31.378H89.357C90.163 31.378 90.566 30.949 90.566 30.091V27.439C91.476 26.594 92.23 25.606 92.854 24.475L91.697 23.747C91.437 24.423 91.06 25.06 90.566 25.671V20.289H86.939C87.069 20.003 87.173 19.704 87.251 19.392L85.821 19.197ZM84.209 26.412V25.463H89.227V26.412H84.209ZM84.209 24.319V23.487H89.227V24.319H84.209ZM84.209 22.356V21.485H89.227V22.356H84.209ZM105.074 25.58C104.892 26.646 104.645 27.504 104.307 28.154C103.917 28.908 103.332 29.584 102.552 30.182L103.436 31.313C104.359 30.572 105.061 29.74 105.529 28.804C105.893 27.998 106.192 26.919 106.413 25.58H108.233C108.207 27.608 108.168 28.791 108.09 29.129C108.025 29.649 107.791 29.922 107.375 29.922C106.959 29.922 106.465 29.896 105.893 29.844L106.218 31.118C106.868 31.157 107.336 31.183 107.609 31.183C108.649 31.183 109.234 30.715 109.364 29.792C109.494 29.09 109.559 27.244 109.559 24.254H103.787C104.671 23.149 105.399 21.719 105.984 19.951L104.723 19.431C104.151 21.368 103.254 22.915 102.058 24.085L103.111 25.008C103.267 24.852 103.41 24.696 103.566 24.514V25.58H105.074ZM101.928 19.249C101.278 21.238 100.29 22.967 98.964 24.436L99.406 25.866C99.796 25.45 100.173 25.034 100.524 24.618V31.378H101.902V22.616C102.422 21.732 102.838 20.796 103.163 19.821L101.928 19.249ZM108.22 19.262L107.063 19.912C107.661 21.914 108.727 23.539 110.248 24.813L111.158 23.721C109.754 22.564 108.779 21.082 108.22 19.262ZM125.237 21.121V29.597H123.833V23.006H122.507V29.597H121.324V30.923H129.397V29.597H126.615V25.593H128.942V24.332H126.615V21.121H129.124V19.795H121.714V21.121H125.237ZM119.153 19.418L118.204 20.315C119.101 20.991 119.79 21.641 120.284 22.252L121.207 21.303C120.635 20.679 119.959 20.055 119.153 19.418ZM117.294 23.162V24.462H119.062V28.947C119.062 29.233 118.945 29.467 118.711 29.649L119.231 30.884C120.115 30.273 120.96 29.584 121.753 28.83L121.402 27.4C121.038 27.764 120.687 28.089 120.349 28.401V23.162H117.294Z" fill="black" fill-opacity="0.06"/>
<path fill-rule="evenodd" clip-rule="evenodd" d="M25.0482 25.113C28.0809 22.4918 29.9999 18.6171 29.9999 14.2941C29.9999 6.3997 23.6002 0 15.7058 0C7.81132 0 1.41162 6.3997 1.41162 14.2941C1.41162 18.706 3.41038 22.651 6.55177 25.2731L5.94749 27.4086C5.76223 28.0633 6.03941 28.7609 6.62351 29.1099L7.71519 29.7622C12.7087 32.7459 18.9374 32.7459 23.9309 29.7622L25.0224 29.11C25.6066 28.7609 25.8838 28.0632 25.6983 27.4084L25.0482 25.113ZM23.5391 21.0651C22.1347 22.6919 20.2245 23.8698 18.0529 24.3546C17.5259 23.7068 16.7224 23.2929 15.8223 23.2929C14.9222 23.2929 14.1188 23.7066 13.5919 24.3543C11.4208 23.8693 9.51114 22.6915 8.10703 21.0651H23.5391ZM26.0127 14.4097C26.0127 16.2888 25.504 18.0491 24.6169 19.5604H19.4671V18.0558H11.9439V19.5604H7.02925C6.14212 18.0491 5.63347 16.2888 5.63347 14.4097C5.63347 8.78214 10.1955 4.2201 15.8231 4.2201C21.4506 4.2201 26.0127 8.78214 26.0127 14.4097ZM16.7942 7.73763L15.9908 5.26506L15.1874 7.73763H12.5876L14.6909 9.26576L13.8875 11.7383L15.9908 10.2102L18.0941 11.7383L17.2907 9.26576L19.394 7.73763H16.7942ZM14.1452 14.2837L14.2605 12.8824L13.3435 13.9482L12.0465 13.4055L12.7768 14.607L11.8598 15.6728L13.2282 15.3495L13.9585 16.551L14.0739 15.1497L15.4422 14.8264L14.1452 14.2837ZM17.3479 12.8824L17.4632 14.2837L16.1662 14.8264L17.5345 15.1497L17.6499 16.551L18.3802 15.3495L19.7486 15.6728L18.8316 14.607L19.5619 13.4055L18.2648 13.9482L17.3479 12.8824ZM21.0816 10.782L21.675 9.50733L21.9441 10.8874L23.3398 11.0579L22.1105 11.7403L22.3796 13.1203L21.3507 12.162L20.1214 12.8444L20.7148 11.5698L19.6859 10.6115L21.0816 10.782ZM10.0405 9.50733L10.634 10.782L12.0296 10.6115L11.0007 11.5698L11.5942 12.8444L10.3649 12.162L9.33595 13.1203L9.60508 11.7403L8.37576 11.0579L9.77142 10.8874L10.0405 9.50733Z" fill="black" fill-opacity="0.03"/>
</svg>
