<svg width="132" height="66" viewBox="0 0 132 66" fill="none" xmlns="http://www.w3.org/2000/svg">
<rect x="0.5" y="2" width="79" height="4" fill="black" fill-opacity="0.03"/>
<rect x="0.5" y="22" width="79" height="4" fill="black" fill-opacity="0.03"/>
<rect x="0.5" y="42" width="63" height="4" fill="black" fill-opacity="0.03"/>
<rect x="0.5" y="62" width="126" height="4" fill="black" fill-opacity="0.03"/>
<circle cx="113.302" cy="12.4923" r="8.49226" fill="black" fill-opacity="0.03"/>
<path fill-rule="evenodd" clip-rule="evenodd" d="M111.436 23.7542C108.917 23.8734 106.406 24.2341 103.939 24.8363C98.8274 26.084 95.3459 30.8171 95.677 36.0684L96.1216 43.118C96.1666 43.832 96.7587 44.3879 97.474 44.3879H129.131C129.846 44.3879 130.438 43.832 130.483 43.118L130.928 36.0684C131.259 30.8171 127.777 26.084 122.666 24.8363C120.199 24.2341 117.688 23.8734 115.169 23.7541L116.942 36.7558L113.302 40.3953L109.663 36.7558L111.436 23.7542Z" fill="black" fill-opacity="0.03"/>
</svg>
