<svg width="244" height="100" viewBox="0 0 244 100" fill="none" xmlns="http://www.w3.org/2000/svg">
<g clip-path="url(#clip0)">
<g clip-path="url(#clip1)">
<rect x="42" y="86" width="160" height="4" fill="black" fill-opacity="0.03"/>
<rect x="42" y="70" width="160" height="4" fill="black" fill-opacity="0.03"/>
<rect x="92" y="54" width="60" height="4" fill="black" fill-opacity="0.03"/>
<path fill-rule="evenodd" clip-rule="evenodd" d="M43.9008 32.6957H38.9008H35V33H34.6718V36.9565L34.6718 41.9565H29.6718H25V116.304H219V41.9565H214.328H209.328V36.9565V33.6957H205.099H200.099V28.6957V23H43.9008V27.6957V32.6957ZM38.9008 27.6957L35 27.6957V23V18H30H25H20V23V28V33H25H29.6718L29.6718 36.9565H25H24.6718H20V41.9565V116.304V121.304H25H219H224V116.304V41.9565V36.9565H219.328H219H214.328V33.6957V33H219H224V28V23V18H219H214H209V23V28V28.6957H205.099V23.6957V23V18H200.099H43.9008H38.9008V22.6957V23V27.6957ZM30 23V27.6957H29.6718V28H25V23H30ZM214 23H219V28H214V23Z" fill="black" fill-opacity="0.03"/>
</g>
<rect x="1.5" y="1.5" width="241" height="109" rx="2.5" stroke="black" stroke-opacity="0.03" stroke-width="3"/>
</g>
<defs>
<clipPath id="clip0">
<rect width="244" height="100" fill="white"/>
</clipPath>
<clipPath id="clip1">
<rect width="244" height="112" rx="4" fill="white"/>
</clipPath>
</defs>
</svg>
